# xmcd
#
# Track frame offsets:
#	150
#	8017
#	19151
#	27882
#	38706
#	58194
#	69470
#	81967
#	96281
#	113861
#	130074
#	142472
#	149941
#
# Disc length: 2163 seconds
#
# Revision: 1
# Processed by: cddbd v1.5.2PL0 Copyright (c) Steve Scherf et al.
# Submitted via: audiograbber 1.83.01
#
DISCID=bf08710d
DTITLE=Marimba Herencia Maya Quiche - Suite Indigena Folklorica El Paabanc
DYEAR=1990
DGENRE=Latin
TTITLE0=Son de la Catarina
TTITLE1=Yantox
TTITLE2=Lain Nebah
TTITLE3=Manzanilla
TTITLE4=Danza de los Micos
TTITLE5=Danza de las Guacamayas
TTITLE6=Danza de los Venados
TTITLE7=Son de la Quema del diablo
TTITLE8=El Gran Tecún
TTITLE9=Escuela del Amor
TTITLE10=Ritual Indigena
TTITLE11=Allegreto Grazloso
TTITLE12=Herencia Maya Quiché
EXTD=
EXTT0=
EXTT1=
EXTT2=
EXTT3=
EXTT4=
EXTT5=
EXTT6=
EXTT7=
EXTT8=
EXTT9=
EXTT10=
EXTT11=
EXTT12=
PLAYORDER=
